<svg width="32" height="32" viewBox="0 0 32 32" fill="none" xmlns="http://www.w3.org/2000/svg">
<path d="M3 7.28579L3.78001 6.50992V4.77564L4.56024 4H28.2857L27.5057 4.77564V6.50992L26.7257 7.28579H20.8972L19.3371 8.83708V22.9386L18.5571 23.7143H16.0329H15.2529L16.0329 22.9386V8.83708L17.5931 7.28579H3Z" fill="#FFC046"/>
<path d="M20.8561 8.28574L20.0714 9.06115V27.2242L19.2871 28H22.6103L23.3945 27.2242V17.3695L24.1792 18.1429V27.2242L23.3945 28H26.7177L27.5024 27.2242V9.06138L28.2871 8.28596H20.8563L20.8561 8.28574ZM24.1792 14.8584L23.3945 14.0812V11.5713H24.1792V14.8584Z" fill="#FFC046"/>
<path d="M4.56894 8.28574L3.78424 9.06115V27.2239L3 28H6.32318L7.10742 27.2242V18.1466L7.89212 17.3708V27.2242L7.10742 28H10.4306L11.2153 27.2242V9.06137L12 8.28596H4.56894V8.28574ZM7.10742 11.5715H7.89212V14.0839L7.10742 14.8597V11.5717V11.5715Z" fill="#FFC046"/>
<path d="M19.2854 24.7143V27.2242L18.5077 28H11.1426L11.9201 27.2242V9.06137L12.6979 8.28574H15.9916L15.214 9.06137V23.1628L13.6587 24.7143H19.2854Z" fill="#FFC046"/>
</svg>
